<?xml version="1.0" standalone="no"?>
<!DOCTYPE svg PUBLIC "-//W3C//DTD SVG 20010904//EN"
 "http://www.w3.org/TR/2001/REC-SVG-20010904/DTD/svg10.dtd">
<svg version="1.0" xmlns="http://www.w3.org/2000/svg"
 width="221.000000pt" height="228.000000pt" viewBox="0 0 221.000000 228.000000"
 preserveAspectRatio="xMidYMid meet">

<g transform="translate(0.000000,228.000000) scale(0.100000,-0.100000)"
fill="#000000" stroke="none">
<path d="M1122 2264 c-12 -8 -22 -23 -21 -32 0 -13 2 -12 9 4 18 44 70 40 70
-6 0 -20 -15 -44 -49 -82 l-49 -53 66 0 c47 0 67 4 70 14 3 9 0 11 -7 6 -7 -4
-28 -4 -47 0 l-35 6 40 44 c44 48 50 74 25 99 -20 20 -43 20 -72 0z"/>
<path d="M1013 2240 c-37 -34 -42 -46 -13 -30 17 9 20 8 20 -8 0 -10 -7 -40
-16 -66 -16 -46 -13 -69 5 -50 5 5 17 38 25 74 9 36 18 75 22 88 9 30 -4 27
-43 -8z"/>
<path d="M516 2095 c-39 -35 -41 -44 -5 -25 24 13 25 2 3 -69 -8 -29 -14 -55
-12 -56 12 -13 29 20 42 80 8 39 18 78 21 88 11 26 -6 20 -49 -18z"/>
<path d="M620 2094 c-19 -19 -30 -34 -24 -34 5 0 15 5 22 12 22 22 25 -2 8
-63 -9 -34 -15 -63 -14 -65 12 -11 27 20 41 81 8 39 19 78 22 88 11 28 -16 18
-55 -19z"/>
<path d="M1586 2090 c-16 -17 -25 -30 -20 -30 6 0 15 5 22 12 17 17 16 -16 -3
-78 -8 -27 -15 -50 -15 -51 0 -2 7 -3 15 -3 8 0 15 2 15 4 0 11 29 143 35 159
11 27 -16 20 -49 -13z"/>
<path d="M110 1725 c-19 -19 -29 -35 -24 -35 6 0 15 5 22 12 20 20 22 4 7 -52
-19 -70 -19 -88 -3 -72 7 7 20 43 29 80 9 37 20 75 24 85 13 30 -18 20 -55
-18z"/>
<path d="M230 1732 c-55 -55 -50 -152 8 -152 62 0 113 101 78 155 -22 33 -51
32 -86 -3z m80 -17 c17 -45 -27 -125 -69 -125 -18 0 -33 40 -26 70 15 69 76
104 95 55z"/>
<path d="M1955 1748 c-23 -13 -35 -28 -34 -43 0 -5 7 0 16 13 19 28 59 29 68
2 8 -24 -7 -51 -57 -106 l-40 -43 68 2 c37 1 69 7 71 12 2 6 -17 9 -49 6 l-53
-3 43 46 c51 56 58 101 16 116 -30 12 -24 12 -49 -2z"/>
<path d="M29 1231 c-49 -49 -34 -92 31 -90 30 2 31 3 7 6 -50 8 -60 75 -14 92
36 14 57 -5 57 -50 0 -50 -21 -102 -56 -134 -15 -14 -22 -25 -17 -25 15 0 82
76 93 106 16 40 12 82 -10 104 -28 28 -57 25 -91 -9z"/>
<path d="M2090 1245 c-15 -18 -7 -19 20 -3 15 10 22 10 31 1 9 -9 4 -19 -22
-42 l-33 -31 31 0 c17 0 39 -7 47 -16 41 -41 -5 -108 -74 -109 -22 0 -40 -3
-40 -7 0 -14 61 -8 96 8 68 33 79 108 20 135 -22 10 -23 14 -10 26 8 8 14 23
14 34 0 15 -7 19 -34 19 -18 0 -39 -7 -46 -15z"/>
<path d="M1967 682 c-26 -37 -47 -73 -47 -80 0 -7 15 -12 41 -12 l42 0 -6 -35
c-3 -19 -2 -35 3 -35 4 0 11 16 14 35 5 25 12 35 26 35 10 0 22 5 25 10 3 6
-3 10 -15 10 -18 0 -20 4 -14 40 4 22 4 40 1 40 -4 0 -11 -18 -17 -40 -9 -35
-14 -40 -40 -40 -17 0 -30 2 -30 6 0 3 18 32 40 64 22 32 40 61 40 64 0 20
-23 -3 -63 -62z"/>
<path d="M182 720 c-32 -13 -38 -38 -15 -67 19 -26 19 -26 -4 -49 -29 -29 -30
-70 -2 -84 11 -7 23 -9 26 -6 3 3 -2 8 -11 12 -22 9 -20 47 5 70 17 16 22 16
29 4 13 -21 12 -54 -2 -68 -9 -9 -9 -12 0 -12 6 0 19 11 27 24 15 22 15 27 1
55 -16 29 -15 31 9 47 14 9 23 19 21 22 -3 2 -17 -3 -32 -12 -24 -17 -26 -17
-40 1 -23 31 -17 52 19 62 18 5 24 9 12 9 -11 1 -30 -3 -43 -8z"/>
<path d="M262 700 c14 -22 24 -19 15 5 -4 8 -11 15 -17 15 -6 0 -6 -7 2 -20z"/>
<path d="M550 370 c-33 -7 -31 -7 18 -9 28 0 52 -3 52 -5 0 -3 -20 -46 -45
-97 -47 -96 -58 -143 -30 -119 8 7 15 18 15 24 0 7 20 54 45 105 25 51 45 97
45 102 0 10 -48 10 -100 -1z"/>
<path d="M1580 334 c-17 -43 -12 -54 19 -54 51 0 76 -44 51 -89 -13 -25 -64
-45 -96 -37 -17 5 -23 3 -19 -4 15 -24 93 -5 133 32 47 45 20 99 -57 114 -22
5 -30 11 -27 21 4 8 6 17 6 19 0 2 19 4 43 4 23 0 49 5 57 10 11 7 -2 10 -43
10 -53 0 -58 -2 -67 -26z"/>
<path d="M1089 198 c-59 -60 -77 -140 -38 -179 26 -26 64 -19 97 17 29 33 28
60 -3 80 -20 13 -31 14 -48 6 -21 -10 -21 -11 5 -11 39 -1 55 -34 33 -67 -12
-19 -23 -24 -43 -22 -25 3 -27 7 -30 50 -3 53 23 117 60 142 12 9 17 16 11 16
-6 0 -26 -14 -44 -32z"/>
</g>
</svg>
